<svg width="100" height="42" viewBox="0 0 100 42" fill="none" xmlns="http://www.w3.org/2000/svg">
<path d="M4.637 29.216C3.97567 29.216 3.34633 29.024 2.749 28.64C2.15167 28.2773 1.70367 27.712 1.405 26.944C1.29833 26.6667 1.22367 26.368 1.181 26.048C1.15967 25.728 1.149 25.4187 1.149 25.12V24.704C1.149 24.5547 1.15967 24.416 1.181 24.288C1.22367 24.16 1.309 24.096 1.437 24.096C1.47967 24.096 1.501 24.1173 1.501 24.16C1.501 24.288 1.49033 24.416 1.469 24.544C1.469 24.672 1.469 24.8 1.469 24.928C1.469 25.9307 1.71433 26.6987 2.205 27.232C2.717 27.744 3.34633 28 4.093 28C4.83967 28 5.565 27.7867 6.269 27.36C6.973 26.912 7.62367 26.3573 8.221 25.696C8.56233 25.3333 8.94633 24.7893 9.373 24.064C9.821 23.3173 10.2797 22.4853 10.749 21.568C11.2397 20.6293 11.7303 19.6693 12.221 18.688C12.7117 17.6853 13.181 16.7253 13.629 15.808C14.077 14.8693 14.4823 14.048 14.845 13.344C15.1863 12.6827 15.645 12.16 16.221 11.776C16.797 11.392 17.2877 11.1253 17.693 10.976C17.5437 10.976 17.2237 10.9867 16.733 11.008C16.2637 11.0293 15.7623 11.0507 15.229 11.072C14.6957 11.0933 14.269 11.1147 13.949 11.136C13.1383 11.1787 12.317 11.2747 11.485 11.424C10.653 11.5733 9.917 11.776 9.277 12.032C8.637 12.288 8.17833 12.6187 7.901 13.024C7.709 13.3013 7.613 13.6213 7.613 13.984C7.613 14.7093 7.933 15.232 8.573 15.552C8.61567 15.5947 8.637 15.616 8.637 15.616C8.637 15.68 8.58367 15.744 8.477 15.808C8.37033 15.8507 8.26367 15.8613 8.157 15.84C7.98633 15.7333 7.773 15.5627 7.517 15.328C7.28233 15.072 7.05833 14.8053 6.845 14.528C6.653 14.2507 6.525 14.016 6.461 13.824C6.35433 13.504 6.301 13.248 6.301 13.056C6.301 12.544 6.493 12.128 6.877 11.808C7.261 11.4667 7.76233 11.2107 8.381 11.04C8.99967 10.848 9.661 10.72 10.365 10.656C11.069 10.5707 11.7517 10.5173 12.413 10.496C13.0743 10.4747 13.6397 10.464 14.109 10.464C15.197 10.464 16.1677 10.464 17.021 10.464C17.8957 10.4427 18.6957 10.432 19.421 10.432C20.1677 10.432 20.8823 10.4427 21.565 10.464C22.269 10.4853 23.005 10.5173 23.773 10.56C24.3277 10.5813 24.701 10.688 24.893 10.88C25.1063 11.072 25.213 11.3067 25.213 11.584C25.213 11.9467 25.0957 12.3413 24.861 12.768C24.6263 13.1947 24.413 13.5893 24.221 13.952C24.1357 14.1227 23.997 14.2507 23.805 14.336C23.613 14.4 23.5383 14.336 23.581 14.144C23.6237 13.952 23.6663 13.7493 23.709 13.536C23.7517 13.3013 23.773 13.0773 23.773 12.864C23.773 12.48 23.6983 12.1387 23.549 11.84C23.3997 11.52 23.1437 11.296 22.781 11.168C22.5677 11.0827 22.3117 11.0293 22.013 11.008C21.7143 10.9653 21.3943 10.944 21.053 10.944C20.413 10.944 19.773 11.008 19.133 11.136C18.493 11.264 17.9917 11.4667 17.629 11.744C17.181 12.0853 16.7223 12.64 16.253 13.408C15.805 14.176 15.3783 14.9973 14.973 15.872C14.5677 16.7467 14.205 17.5147 13.885 18.176C13.8637 18.2187 13.853 18.2827 13.853 18.368C13.853 18.4747 13.949 18.528 14.141 18.528C14.4397 18.528 14.8557 18.528 15.389 18.528C15.9437 18.528 16.5197 18.5387 17.117 18.56C17.7143 18.56 18.2263 18.56 18.653 18.56C19.1223 18.56 19.4957 18.592 19.773 18.656C20.0503 18.6987 20.189 18.8373 20.189 19.072C20.189 19.1573 20.1357 19.328 20.029 19.584C19.8797 19.9253 19.709 20.224 19.517 20.48C19.3463 20.7147 19.2077 20.96 19.101 21.216C19.0797 21.3013 18.9837 21.376 18.813 21.44C18.6423 21.504 18.5783 21.4933 18.621 21.408C18.7063 21.216 18.7917 20.9813 18.877 20.704C18.9837 20.4053 19.037 20.1493 19.037 19.936C19.037 19.5947 18.8877 19.424 18.589 19.424H13.597C13.405 19.424 13.2557 19.5093 13.149 19.68C12.5303 20.9173 11.8583 22.24 11.133 23.648C10.429 25.056 9.60767 26.2613 8.669 27.264C8.13567 27.84 7.517 28.3093 6.813 28.672C6.109 29.0347 5.38367 29.216 4.637 29.216ZM24.19 28.096C23.9767 28.096 23.7953 28.0533 23.646 27.968C23.4967 27.8827 23.422 27.7227 23.422 27.488C23.422 27.1893 23.4967 26.848 23.646 26.464C23.7953 26.08 23.966 25.7067 24.158 25.344C24.35 24.96 24.5207 24.6507 24.67 24.416C23.9233 25.2053 23.1447 25.952 22.334 26.656C21.9287 26.9973 21.4807 27.3173 20.99 27.616C20.4993 27.9147 19.9767 28.064 19.422 28.064C19.2087 28.064 19.0593 28 18.974 27.872C18.8887 27.7227 18.846 27.552 18.846 27.36C18.846 27.2533 18.8567 27.1787 18.878 27.136C18.9847 26.304 19.2513 25.44 19.678 24.544C20.1047 23.648 20.6273 22.8053 21.246 22.016C21.8647 21.2267 22.494 20.5867 23.134 20.096C23.8593 19.5413 24.6593 19.264 25.534 19.264H29.214C29.3207 19.264 29.374 19.3067 29.374 19.392C29.374 19.5627 29.278 19.648 29.086 19.648C28.8727 19.648 28.6593 19.7867 28.446 20.064C28.2327 20.32 28.0727 20.5333 27.966 20.704C27.8167 20.9387 27.582 21.3333 27.262 21.888C26.942 22.4427 26.6113 23.0507 26.27 23.712C25.95 24.352 25.6727 24.9493 25.438 25.504C25.2033 26.0587 25.086 26.464 25.086 26.72C25.086 27.0187 25.2353 27.168 25.534 27.168C25.854 27.168 26.2167 27.0187 26.622 26.72C27.0273 26.4213 27.4327 26.0587 27.838 25.632C28.2647 25.184 28.6487 24.7467 28.99 24.32C29.3527 23.872 29.6407 23.52 29.854 23.264C29.982 23.392 29.9713 23.5733 29.822 23.808C29.694 24.0213 29.5767 24.192 29.47 24.32C29.0433 24.8747 28.5527 25.4507 27.998 26.048C27.4433 26.624 26.8353 27.1147 26.174 27.52C25.534 27.904 24.8727 28.096 24.19 28.096ZM20.734 26.976C20.99 26.976 21.342 26.7947 21.79 26.432C22.2593 26.048 22.7607 25.5787 23.294 25.024C23.8273 24.448 24.3287 23.8507 24.798 23.232C25.2673 22.592 25.6513 22.016 25.95 21.504C26.27 20.9707 26.43 20.5653 26.43 20.288C26.43 20.0533 26.3553 19.8933 26.206 19.808C26.078 19.7227 25.9073 19.68 25.694 19.68C25.3527 19.68 24.9793 19.808 24.574 20.064C24.19 20.2987 23.8807 20.5333 23.646 20.768C23.39 21.0027 23.0807 21.376 22.718 21.888C22.3767 22.3787 22.0353 22.9227 21.694 23.52C21.3527 24.1173 21.0647 24.6933 20.83 25.248C20.5953 25.8027 20.478 26.2507 20.478 26.592C20.478 26.848 20.5633 26.976 20.734 26.976ZM30.5243 28.096C30.3109 28.096 30.1296 28.0533 29.9803 27.968C29.8309 27.8827 29.7563 27.7227 29.7563 27.488C29.7563 27.1893 29.8309 26.8373 29.9803 26.432C30.1509 26.0267 30.3323 25.6213 30.5243 25.216C30.7163 24.8107 30.8763 24.48 31.0043 24.224C31.1109 24.032 31.2496 23.7333 31.4203 23.328C31.6123 22.9013 31.8043 22.464 31.9963 22.016C32.2096 21.5467 32.3803 21.152 32.5083 20.832C32.6576 20.512 32.7323 20.352 32.7323 20.352C32.5403 20.5653 32.2843 20.864 31.9643 21.248C31.6656 21.632 31.3349 22.0373 30.9723 22.464C30.6309 22.8693 30.3109 23.2533 30.0123 23.616C29.7349 23.9787 29.5323 24.2453 29.4043 24.416C29.3403 24.5013 29.2869 24.544 29.2443 24.544C29.2016 24.544 29.1803 24.4907 29.1803 24.384C29.1803 24.2133 29.2336 24.0533 29.3403 23.904C29.5963 23.584 29.9056 23.2 30.2682 22.752C30.6309 22.2827 30.9936 21.8133 31.3563 21.344C31.7403 20.8747 32.0709 20.4587 32.3483 20.096C32.1776 20.096 31.9536 20.1067 31.6763 20.128C31.4203 20.1493 31.1856 20.1813 30.9723 20.224C30.7589 20.2453 30.6416 20.256 30.6203 20.256C30.5136 20.256 30.5243 20.1707 30.6523 20C30.7803 19.8293 30.9509 19.6587 31.1643 19.488C31.3776 19.3173 31.5376 19.232 31.6443 19.232C31.6656 19.232 31.8363 19.2427 32.1562 19.264C32.4763 19.264 32.7109 19.264 32.8602 19.264C33.2869 18.688 33.7029 18.0267 34.1083 17.28C34.5349 16.5333 34.9509 15.712 35.3563 14.816C35.5269 14.7947 35.8149 14.6773 36.2203 14.464C36.6469 14.2293 36.9776 13.9947 37.2123 13.76C37.3189 13.6533 37.4043 13.6 37.4683 13.6C37.5963 13.6 37.5963 13.6853 37.4683 13.856C37.3189 14.0267 37.0629 14.3893 36.7003 14.944C36.3376 15.4773 35.9323 16.128 35.4843 16.896C35.0363 17.6427 34.6096 18.432 34.2043 19.264H36.7963C37.0309 19.264 37.1483 19.296 37.1483 19.36C37.1483 19.4453 36.9883 19.5307 36.6683 19.616C36.3056 19.7227 35.9216 19.7867 35.5163 19.808C35.1323 19.8293 34.7696 19.872 34.4283 19.936C34.1083 20 33.8736 20.1387 33.7243 20.352C33.5963 20.5013 33.4149 20.8213 33.1803 21.312C32.9456 21.8027 32.6896 22.368 32.4123 23.008C32.1563 23.6267 31.9323 24.256 31.7403 24.896C31.5483 25.5147 31.4309 26.0373 31.3883 26.464V26.592C31.3883 26.7627 31.4416 26.9013 31.5483 27.008C31.6549 27.1147 31.7616 27.168 31.8683 27.168C32.1456 27.168 32.4976 26.9973 32.9243 26.656C33.3723 26.3147 33.8309 25.9093 34.3003 25.44C34.7696 24.9493 35.1749 24.5013 35.5163 24.096C35.6656 23.9253 35.7936 23.7653 35.9003 23.616C36.0283 23.4667 36.1029 23.3707 36.1243 23.328C36.1669 23.4133 36.1883 23.4773 36.1883 23.52C36.1883 23.648 36.1456 23.7867 36.0603 23.936C35.9963 24.0853 35.9216 24.2133 35.8363 24.32C35.4309 24.8533 34.9403 25.4187 34.3643 26.016C33.7883 26.592 33.1696 27.0827 32.5083 27.488C31.8683 27.8933 31.2069 28.096 30.5243 28.096ZM37.412 28.256C36.5373 28.256 35.9293 28.0853 35.588 27.744C35.2467 27.4027 35.076 26.9867 35.076 26.496C35.076 25.8773 35.236 25.216 35.556 24.512C35.8973 23.808 36.2173 23.2107 36.516 22.72C36.8573 22.208 37.316 21.6747 37.892 21.12C38.468 20.5653 39.0973 20.096 39.78 19.712C40.4627 19.328 41.124 19.136 41.764 19.136C42.3187 19.136 42.7027 19.2747 42.916 19.552C43.1293 19.808 43.236 20.1173 43.236 20.48C43.236 21.1413 43.0333 21.6853 42.628 22.112C42.244 22.5387 41.764 22.8907 41.188 23.168C40.612 23.424 40.0573 23.6373 39.524 23.808C39.204 23.8933 38.8307 23.9787 38.404 24.064C37.9773 24.1493 37.572 24.192 37.188 24.192C37.0387 24.576 36.9213 24.9493 36.836 25.312C36.7507 25.6747 36.708 26.0053 36.708 26.304C36.708 26.6667 36.7933 26.9653 36.964 27.2C37.156 27.4347 37.4653 27.552 37.892 27.552C38.0627 27.552 38.2653 27.5307 38.5 27.488C38.7347 27.4453 38.9907 27.3813 39.268 27.296C39.908 27.0827 40.5373 26.7413 41.156 26.272C41.7747 25.8027 42.34 25.3013 42.852 24.768C43.3853 24.2133 43.7907 23.7547 44.068 23.392C44.132 23.456 44.164 23.5307 44.164 23.616C44.164 23.7227 44.0893 23.8933 43.94 24.128C43.5133 24.7253 42.9587 25.344 42.276 25.984C41.5933 26.624 40.836 27.168 40.004 27.616C39.172 28.0427 38.308 28.256 37.412 28.256ZM37.444 23.552C37.7213 23.5733 38.0307 23.5733 38.372 23.552C38.7347 23.5093 39.0867 23.4347 39.428 23.328C40.3027 23.072 40.932 22.6667 41.316 22.112C41.7213 21.536 41.924 21.024 41.924 20.576C41.924 20.32 41.8707 20.1067 41.764 19.936C41.6573 19.7653 41.4867 19.68 41.252 19.68C40.6333 19.68 40.0787 19.9147 39.588 20.384C39.0973 20.832 38.6707 21.3547 38.308 21.952C37.9453 22.5493 37.6573 23.0827 37.444 23.552ZM43.7488 28.48C43.6634 28.48 43.6634 28.384 43.7488 28.192C43.8554 28 43.9514 27.7867 44.0368 27.552C44.1434 27.3173 44.2501 27.0613 44.3568 26.784C44.5701 26.272 44.8048 25.696 45.0608 25.056C45.3168 24.416 45.5621 23.7973 45.7968 23.2C46.0314 22.5813 46.2341 22.0587 46.4048 21.632C46.5968 21.184 46.7248 20.896 46.7888 20.768C46.4901 21.088 46.1274 21.4933 45.7008 21.984C45.2954 22.4533 44.9114 22.912 44.5488 23.36C44.1861 23.808 43.9088 24.16 43.7168 24.416C43.6528 24.5013 43.5994 24.544 43.5568 24.544C43.5141 24.544 43.4928 24.4907 43.4928 24.384C43.4928 24.2133 43.5461 24.0533 43.6528 23.904C44.0581 23.392 44.5061 22.816 44.9968 22.176C45.5088 21.536 45.9674 20.9493 46.3728 20.416C46.7781 19.8613 47.0341 19.4987 47.1408 19.328C47.3754 19.2853 47.7168 19.2213 48.1648 19.136C48.6341 19.0507 48.9541 18.9333 49.1248 18.784C49.1888 18.72 49.2528 18.688 49.3168 18.688C49.3594 18.688 49.3808 18.7307 49.3808 18.816C49.4021 18.88 49.3808 18.9547 49.3168 19.04C49.1888 19.1893 48.9648 19.5413 48.6448 20.096C48.3461 20.6293 48.0154 21.2267 47.6528 21.888C47.3114 22.5493 46.9914 23.1467 46.6927 23.68C47.0341 23.2747 47.3648 22.8907 47.6848 22.528C48.0261 22.1653 48.2608 21.9093 48.3888 21.76C48.6448 21.504 48.9968 21.184 49.4448 20.8C49.8928 20.416 50.3621 20.064 50.8528 19.744C51.3434 19.424 51.7701 19.2427 52.1328 19.2C52.2181 19.1787 52.2928 19.168 52.3568 19.168C52.4208 19.168 52.4848 19.168 52.5488 19.168C52.9541 19.168 53.1568 19.3173 53.1568 19.616C53.1568 19.744 53.1248 19.8933 53.0608 20.064C52.9968 20.2347 52.9114 20.4053 52.8048 20.576C52.6768 20.832 52.4634 21.2373 52.1648 21.792C51.8661 22.3253 51.5994 22.816 51.3648 23.264L52.8688 21.76C53.1248 21.504 53.4768 21.184 53.9248 20.8C54.3728 20.416 54.8421 20.064 55.3328 19.744C55.8234 19.424 56.2501 19.2427 56.6128 19.2C56.6981 19.1787 56.7728 19.168 56.8368 19.168C56.9221 19.168 56.9861 19.168 57.0288 19.168C57.4981 19.168 57.7328 19.3387 57.7328 19.68C57.7328 19.936 57.5941 20.2773 57.3168 20.704C57.1674 20.9387 56.9328 21.3333 56.6128 21.888C56.2928 22.4427 55.9621 23.0507 55.6208 23.712C55.3008 24.352 55.0234 24.9493 54.7888 25.504C54.5541 26.0587 54.4368 26.464 54.4368 26.72C54.4368 27.0187 54.5861 27.168 54.8848 27.168C55.1621 27.168 55.5141 27.008 55.9408 26.688C56.3888 26.3467 56.8368 25.9413 57.2848 25.472C57.7541 25.0027 58.1594 24.5547 58.5008 24.128C58.6501 23.9573 58.7888 23.7867 58.9167 23.616C59.0661 23.424 59.1514 23.3173 59.1728 23.296C59.2154 23.3387 59.2368 23.4133 59.2368 23.52C59.2368 23.6693 59.1834 23.8187 59.0768 23.968C58.9914 24.096 58.9061 24.2133 58.8208 24.32C58.4154 24.8533 57.9461 25.408 57.4128 25.984C56.9008 26.56 56.3354 27.0507 55.7168 27.456C55.0981 27.84 54.4368 28.064 53.7328 28.128C53.5194 28.1493 53.3061 28.1067 53.0928 28C52.8794 27.8933 52.7728 27.7227 52.7728 27.488C52.7728 27.1893 52.8474 26.8373 52.9968 26.432C53.1674 26.0267 53.3488 25.6213 53.5408 25.216C53.7541 24.8107 53.9141 24.48 54.0208 24.224C54.4048 23.4773 54.7568 22.7733 55.0768 22.112C55.3968 21.4507 55.6208 20.9813 55.7488 20.704C55.8128 20.576 55.8448 20.4693 55.8448 20.384C55.8448 20.2347 55.7274 20.224 55.4928 20.352C55.2581 20.48 54.9701 20.672 54.6288 20.928C54.3088 21.184 54.0101 21.44 53.7328 21.696C53.4554 21.9307 53.2741 22.0907 53.1888 22.176C52.8261 22.5387 52.3888 23.0293 51.8767 23.648C51.3861 24.2667 50.9274 24.9173 50.5008 25.6C50.0741 26.2613 49.7754 26.88 49.6048 27.456C49.3914 27.648 49.1888 27.744 48.9968 27.744C48.8474 27.744 48.7194 27.6907 48.6128 27.584C48.5274 27.4773 48.4848 27.3493 48.4848 27.2C48.4848 26.7733 48.6128 26.272 48.8688 25.696C49.1461 25.0987 49.3701 24.608 49.5408 24.224C49.9248 23.4773 50.2768 22.7733 50.5968 22.112C50.9168 21.4507 51.1408 20.9813 51.2688 20.704C51.3328 20.576 51.3648 20.4693 51.3648 20.384C51.3648 20.2347 51.2474 20.224 51.0128 20.352C50.7781 20.48 50.4901 20.672 50.1488 20.928C49.8288 21.184 49.5301 21.44 49.2528 21.696C48.9754 21.9307 48.7941 22.0907 48.7088 22.176C48.1968 22.7093 47.7168 23.2533 47.2688 23.808C46.8421 24.3627 46.4794 24.96 46.1808 25.6C46.0101 25.984 45.8288 26.4107 45.6368 26.88C45.4448 27.3493 45.2848 27.744 45.1568 28.064C44.8794 28.0853 44.6021 28.16 44.3248 28.288C44.0474 28.416 43.8554 28.48 43.7488 28.48ZM60.412 28.256C59.5373 28.256 58.9293 28.0853 58.588 27.744C58.2467 27.4027 58.076 26.9867 58.076 26.496C58.076 25.8773 58.236 25.216 58.556 24.512C58.8973 23.808 59.2173 23.2107 59.516 22.72C59.8573 22.208 60.316 21.6747 60.892 21.12C61.468 20.5653 62.0973 20.096 62.78 19.712C63.4627 19.328 64.124 19.136 64.764 19.136C65.3187 19.136 65.7027 19.2747 65.916 19.552C66.1293 19.808 66.236 20.1173 66.236 20.48C66.236 21.1413 66.0333 21.6853 65.628 22.112C65.244 22.5387 64.764 22.8907 64.188 23.168C63.612 23.424 63.0573 23.6373 62.524 23.808C62.204 23.8933 61.8307 23.9787 61.404 24.064C60.9773 24.1493 60.572 24.192 60.188 24.192C60.0387 24.576 59.9213 24.9493 59.836 25.312C59.7507 25.6747 59.708 26.0053 59.708 26.304C59.708 26.6667 59.7933 26.9653 59.964 27.2C60.156 27.4347 60.4653 27.552 60.892 27.552C61.0627 27.552 61.2653 27.5307 61.5 27.488C61.7347 27.4453 61.9907 27.3813 62.268 27.296C62.908 27.0827 63.5373 26.7413 64.156 26.272C64.7747 25.8027 65.34 25.3013 65.852 24.768C66.3853 24.2133 66.7907 23.7547 67.068 23.392C67.132 23.456 67.164 23.5307 67.164 23.616C67.164 23.7227 67.0893 23.8933 66.94 24.128C66.5133 24.7253 65.9587 25.344 65.276 25.984C64.5933 26.624 63.836 27.168 63.004 27.616C62.172 28.0427 61.308 28.256 60.412 28.256ZM60.444 23.552C60.7213 23.5733 61.0307 23.5733 61.372 23.552C61.7347 23.5093 62.0867 23.4347 62.428 23.328C63.3027 23.072 63.932 22.6667 64.316 22.112C64.7213 21.536 64.924 21.024 64.924 20.576C64.924 20.32 64.8707 20.1067 64.764 19.936C64.6573 19.7653 64.4867 19.68 64.252 19.68C63.6333 19.68 63.0787 19.9147 62.588 20.384C62.0973 20.832 61.6707 21.3547 61.308 21.952C60.9453 22.5493 60.6573 23.0827 60.444 23.552ZM71.2928 28.192C70.9728 28.192 70.6848 28.128 70.4288 28C70.1941 27.872 70.0768 27.6373 70.0768 27.296C70.0768 27.104 70.1194 26.8907 70.2048 26.656C70.3968 26.1653 70.6528 25.568 70.9728 24.864C71.3141 24.16 71.6554 23.4773 71.9968 22.816C72.3381 22.1333 72.6048 21.5787 72.7968 21.152C72.9248 20.896 72.9888 20.7147 72.9888 20.608C72.9888 20.416 72.8821 20.3733 72.6688 20.48C72.4554 20.5867 72.2208 20.736 71.9648 20.928C71.7088 21.12 71.5168 21.2693 71.3888 21.376C70.8341 21.888 70.2474 22.496 69.6288 23.2C69.0314 23.8827 68.4768 24.608 67.9648 25.376C67.4741 26.1227 67.0901 26.8693 66.8128 27.616C66.7914 27.744 66.6528 27.8507 66.3968 27.936C66.1408 28.0213 65.9061 28.064 65.6928 28.064C65.3514 28.064 65.2234 27.9573 65.3087 27.744C65.7994 26.6347 66.3008 25.408 66.8128 24.064C67.3461 22.72 67.9434 21.344 68.6048 19.936C69.0954 18.8693 69.6394 17.7707 70.2368 16.64C70.8554 15.5093 71.5381 14.432 72.2848 13.408C73.0314 12.3627 73.8528 11.4453 74.7488 10.656C75.5381 9.97333 76.4021 9.41867 77.3408 8.992C78.3008 8.544 79.3354 8.32 80.4448 8.32C80.9354 8.32 81.3621 8.42667 81.7248 8.64C82.0874 8.832 82.2901 9.184 82.3328 9.696V9.984C82.3328 10.2827 82.3008 10.5813 82.2368 10.88C82.2154 10.9653 82.1301 11.008 81.9808 11.008C81.9168 11.008 81.8954 10.9973 81.9167 10.976C82.0021 10.4213 81.8528 10.0267 81.4688 9.792C81.1061 9.55733 80.6368 9.44 80.0608 9.44C79.0154 9.44 78.0554 9.632 77.1808 10.016C76.3061 10.4 75.4954 10.912 74.7488 11.552C73.5968 12.5547 72.5941 13.8347 71.7408 15.392C70.8874 16.9493 70.1514 18.5387 69.5328 20.16C69.2341 20.9493 68.9354 21.7387 68.6368 22.528C68.3594 23.3173 68.0928 24.0533 67.8368 24.736C68.7968 23.456 69.7141 22.3573 70.5888 21.44C71.4848 20.5227 72.2634 19.872 72.9248 19.488C73.4581 19.1893 73.9381 19.04 74.3648 19.04C74.7701 19.04 74.9728 19.2107 74.9728 19.552C74.9728 19.8507 74.8234 20.2347 74.5248 20.704C74.3754 20.9387 74.1408 21.3333 73.8208 21.888C73.5221 22.4427 73.2021 23.0507 72.8608 23.712C72.5408 24.352 72.2634 24.9493 72.0288 25.504C71.7941 26.0587 71.6768 26.464 71.6768 26.72C71.6768 27.0613 71.8261 27.232 72.1248 27.232C72.2954 27.232 72.4874 27.1787 72.7008 27.072C72.9354 26.9653 73.1061 26.8693 73.2128 26.784C73.7888 26.3573 74.3541 25.8347 74.9088 25.216C75.4634 24.5973 75.9328 24.0533 76.3168 23.584C76.3381 23.5627 76.3488 23.5947 76.3488 23.68C76.3488 23.7653 76.3274 23.8933 76.2848 24.064C76.2634 24.2133 76.1994 24.3413 76.0928 24.448C75.8581 24.768 75.6128 25.0773 75.3568 25.376C75.1221 25.6533 74.8874 25.9307 74.6528 26.208C74.2474 26.6773 73.7568 27.1253 73.1808 27.552C72.6261 27.9787 71.9968 28.192 71.2928 28.192Z" fill="white"/>
<path d="M86.1929 12V5.2H88.2629C88.7696 5.2 89.1696 5.27333 89.4629 5.42C89.7629 5.56667 89.9763 5.77333 90.1029 6.04C90.2363 6.30667 90.3029 6.62 90.3029 6.98V7.26C90.3029 7.78667 90.0763 8.19 89.6229 8.47C89.9429 8.59667 90.1863 8.78 90.3529 9.02C90.5196 9.26 90.6029 9.54667 90.6029 9.88V10.16C90.6029 10.5267 90.5363 10.85 90.4029 11.13C90.2696 11.4033 90.0496 11.6167 89.7429 11.77C89.4363 11.9233 89.0263 12 88.5129 12H86.1929ZM88.2629 6.3H87.3929V8H88.2629C88.5296 8 88.7296 7.94 88.8629 7.82C89.0029 7.69333 89.0729 7.52333 89.0729 7.31V6.98C89.0729 6.76667 89.0029 6.6 88.8629 6.48C88.7296 6.36 88.5296 6.3 88.2629 6.3ZM88.5129 9.1H87.3929V10.9H88.5129C88.7929 10.9 89.0063 10.8333 89.1529 10.7C89.2996 10.5667 89.3729 10.3867 89.3729 10.16V9.83C89.3729 9.60333 89.2996 9.42667 89.1529 9.3C89.0063 9.16667 88.7929 9.1 88.5129 9.1ZM94.8625 12V11.31C94.5559 11.6167 94.2892 11.8267 94.0625 11.94C93.8425 12.0467 93.6125 12.1 93.3725 12.1C92.8259 12.1 92.3992 11.8933 92.0925 11.48C91.7925 11.0667 91.6425 10.4867 91.6425 9.74V9.2C91.6425 8.47333 91.8259 7.89667 92.1925 7.47C92.5592 7.04333 93.0892 6.83 93.7825 6.83C93.9559 6.83 94.1259 6.84667 94.2925 6.88C94.4659 6.91333 94.6359 6.96 94.8025 7.02V4.6H95.9525V12H94.8625ZM92.8225 9.74C92.8225 10.1867 92.8959 10.5133 93.0425 10.72C93.1959 10.9267 93.4092 11.03 93.6825 11.03C93.8359 11.03 93.9992 10.9867 94.1725 10.9C94.3459 10.8067 94.5559 10.6333 94.8025 10.38V8.06C94.4759 7.92667 94.1759 7.86 93.9025 7.86C93.5159 7.86 93.2392 7.98 93.0725 8.22C92.9059 8.46 92.8225 8.78667 92.8225 9.2V9.74Z" fill="#ADADAD"/>
<circle cx="91" cy="9" r="8.5" stroke="#ADADAD"/>
</svg>
